<?xml version="1.0" ?><svg id="Layer_1" style="enable-background:new 0 0 512 512;" version="1.1" viewBox="0 0 512 512" xml:space="preserve" xmlns="http://www.w3.org/2000/svg" xmlns:xlink="http://www.w3.org/1999/xlink"><style type="text/css">
	.st0{fill:#FFCE07;}
	.st1{fill:#562A15;}
	.st2{fill:#FFFFFF;}
	.st3{fill:#CD352F;}
</style><g><circle class="st0" cx="256" cy="256" r="128"/><g><g><path class="st1" d="M324,211.7c0,4-0.8,7.6-2.2,10.7c-0.9,2-3.4,2.8-5.2,1.5c-1.9-1.4-4-2.2-6.3-2.2c-2.3,0-4.4,0.8-6.3,2.2     c-1.7,1.3-4.3,0.4-5.2-1.5c-1.4-3.1-2.3-6.7-2.3-10.7c0-10.7,6.1-19.4,13.7-19.4C317.8,192.3,324,201,324,211.7z"/></g><g><path class="st1" d="M215.5,211.7c0,4-0.8,7.6-2.2,10.7c-0.9,2-3.4,2.8-5.2,1.5c-1.9-1.4-4-2.2-6.3-2.2c-2.3,0-4.4,0.8-6.3,2.2     c-1.7,1.3-4.3,0.4-5.2-1.5c-1.4-3.1-2.2-6.7-2.2-10.7c0-10.7,6.1-19.4,13.7-19.4C209.3,192.3,215.5,201,215.5,211.7z"/></g></g><g><g><path class="st1" d="M190.9,261.7c-3.8,0-6.4,3.6-5.4,7.3c6.7,24.4,35.6,42.8,70.4,42.8c35,0,64.1-18.6,70.6-43.2     c0.9-3.5-1.9-6.8-5.5-6.8H190.9z"/></g><g><g><path class="st2" d="M256,271.3c19,0,36.4-3.6,50.2-9.6H205.7C219.5,267.7,237,271.3,256,271.3z"/></g><g><path class="st3" d="M257.2,298.5c-10.1,0-19.2,3.9-25.6,10.1c7.6,2,15.8,3.2,24.4,3.2c9.3,0,18.1-1.3,26.2-3.7      C275.8,302.2,267,298.5,257.2,298.5z"/></g></g></g></g></svg>