<?xml version="1.0" ?><svg id="Layer_1" style="enable-background:new 0 0 512 512;" version="1.1" viewBox="0 0 512 512" xml:space="preserve" xmlns="http://www.w3.org/2000/svg" xmlns:xlink="http://www.w3.org/1999/xlink"><style type="text/css">
	.st0{fill:#FFCE07;}
	.st1{fill:#562A15;}
</style><g><path class="st0" d="M384,256c0,70.7-57.3,128-128,128c-70.7,0-128-57.3-128-128c0-70.7,57.3-128,128-128   C326.7,128,384,185.3,384,256z"/><g><g><g><path class="st1" d="M322.3,271.3c-0.4,0-0.8-0.1-1.2-0.2l-27.2-7.9c-1.6-0.5-2.8-1.9-3-3.6c-0.2-1.7,0.7-3.3,2.2-4.1      c0,0,21.2-10.9,27.5-14.3c2-1.1,4.6-0.3,5.6,1.7c1.1,2,0.3,4.6-1.7,5.6c-3.5,1.9-11.8,6.2-18.3,9.6l17.2,5      c2.2,0.6,3.5,3,2.8,5.2C325.7,270.1,324.1,271.3,322.3,271.3z"/></g></g><g><g><path class="st1" d="M189.7,271.3c-1.8,0-3.5-1.2-4-3c-0.6-2.2,0.6-4.5,2.8-5.2l17.2-5c-6.5-3.4-14.8-7.7-18.3-9.6      c-2-1.1-2.8-3.6-1.7-5.6c1.1-2,3.6-2.8,5.6-1.7c6.3,3.4,27.5,14.3,27.5,14.3c1.5,0.8,2.4,2.4,2.2,4.1c-0.2,1.7-1.3,3.1-3,3.6      l-27.2,7.9C190.5,271.2,190.1,271.3,189.7,271.3z"/></g></g></g><g><g><path class="st1" d="M338.9,218.5c-0.2,0-0.4,0-0.6-0.1c-20.8-3.2-31.3-20.1-31.7-20.8c-1.2-2-0.6-4.5,1.4-5.7     c2-1.2,4.5-0.6,5.7,1.4l0,0c0.1,0.1,9,14.3,25.8,16.9c2.3,0.4,3.8,2.5,3.5,4.8C342.7,217,340.9,218.5,338.9,218.5z"/></g><g><path class="st1" d="M173.1,218.5c-2,0-3.8-1.5-4.1-3.5c-0.3-2.3,1.2-4.4,3.5-4.8c17-2.6,25.7-16.7,25.8-16.9     c1.2-2,3.7-2.6,5.7-1.4c2,1.2,2.6,3.8,1.4,5.7c-0.4,0.7-10.9,17.6-31.7,20.8C173.6,218.5,173.3,218.5,173.1,218.5z"/></g></g><g><path class="st1" d="M210.9,330.3c-1.6,0-3.1-0.6-4.3-1.7l-11.3-10.8c-2.5-2.4-2.6-6.4-0.2-8.9c2.4-2.5,6.4-2.6,8.9-0.2l6.9,6.6    l18.2-17.4c2.4-2.3,6.2-2.3,8.6,0l18.2,17.4l18.2-17.4c2.4-2.3,6.2-2.3,8.7,0l18.2,17.4l6.9-6.6c2.5-2.4,6.5-2.3,8.8,0.2    c2.4,2.5,2.3,6.5-0.2,8.9l-11.3,10.8c-2.4,2.3-6.2,2.3-8.6,0l-18.2-17.4l-18.2,17.4c-2.4,2.3-6.2,2.3-8.7,0l-18.2-17.4l-18.2,17.4    C214.1,329.7,212.5,330.3,210.9,330.3z"/></g></g></svg>