<?xml version="1.0" ?><svg id="Layer_1" style="enable-background:new 0 0 512 512;" version="1.1" viewBox="0 0 512 512" xml:space="preserve" xmlns="http://www.w3.org/2000/svg" xmlns:xlink="http://www.w3.org/1999/xlink"><style type="text/css">
	.st0{fill:#FFCE07;}
	.st1{fill:#562A15;}
</style><g><g><path class="st0" d="M384,256c0,70.7-57.3,128-128,128c-70.7,0-128-57.3-128-128c0-70.7,57.3-128,128-128    C326.7,128,384,185.3,384,256z"/></g><g><g><path class="st1" d="M314.4,298.6H197.6c-3.5,0-6.3-2.8-6.3-6.3c0-3.5,2.8-6.3,6.3-6.3h116.8c3.5,0,6.3,2.8,6.3,6.3     C320.7,295.8,317.9,298.6,314.4,298.6z"/></g><g><g><path class="st1" d="M210.3,238.6H182c-2.3,0-4.2-1.9-4.2-4.2c0-2.3,1.9-4.2,4.2-4.2h28.2c2.3,0,4.2,1.9,4.2,4.2      C214.4,236.8,212.6,238.6,210.3,238.6z"/></g><g><path class="st1" d="M330,238.6h-28.2c-2.3,0-4.2-1.9-4.2-4.2c0-2.3,1.9-4.2,4.2-4.2H330c2.3,0,4.2,1.9,4.2,4.2      C334.1,236.8,332.3,238.6,330,238.6z"/></g></g></g></g></svg>