<?xml version="1.0" ?><svg id="Layer_1" style="enable-background:new 0 0 512 512;" version="1.1" viewBox="0 0 512 512" xml:space="preserve" xmlns="http://www.w3.org/2000/svg" xmlns:xlink="http://www.w3.org/1999/xlink"><style type="text/css">
	.st0{fill:#FFCE07;}
	.st1{fill:#562A15;}
	.st2{fill:#FFFFFF;}
	.st3{opacity:0.4;}
	.st4{fill:#E45825;}
</style><g><circle class="st0" cx="256" cy="256" r="128"/><g><g><path class="st1" d="M281.8,317.9c-1.4,0-2.8-0.5-4-1.6c-5.4-5-12.7-7.9-20.6-8.2c-8.8-0.4-17.2,2.6-22.9,8.2     c-2.3,2.2-6,2.1-8.2-0.2c-2.2-2.3-2.1-6,0.2-8.2c8.1-7.7,19.5-11.8,31.4-11.4c10.7,0.4,20.7,4.4,28.1,11.3     c2.3,2.2,2.5,5.9,0.3,8.2C284.9,317.2,283.3,317.9,281.8,317.9z"/></g></g><g><g><path class="st1" d="M178.7,215.1c-1,0-2-0.4-2.7-1.3c-1.3-1.5-1.1-3.8,0.4-5.1c8.3-7.1,18.8-11.5,29.6-12.5     c2-0.1,3.7,1.3,3.9,3.3c0.2,2-1.3,3.7-3.3,3.9c-9.4,0.8-18.4,4.7-25.6,10.8C180.3,214.8,179.5,215.1,178.7,215.1z"/></g><g><path class="st1" d="M333.3,215.1c-0.8,0-1.7-0.3-2.3-0.9c-7.1-6.1-16.2-10-25.6-10.8c-2-0.2-3.4-1.9-3.3-3.9     c0.2-2,1.9-3.4,3.9-3.3c10.8,1,21.4,5.4,29.6,12.5c1.5,1.3,1.7,3.6,0.4,5.1C335.3,214.6,334.3,215.1,333.3,215.1z"/></g></g><g><g><g><path class="st2" d="M337.6,248.6c0,15.5-12.1,28-27,28c-14.9,0-27-12.5-27-28c0-15.4,12.1-28,27-28      C325.5,220.6,337.6,233.1,337.6,248.6z"/></g><g><path class="st1" d="M322.1,248.6c0,6.6-5.2,12-11.5,12c-6.4,0-11.6-5.4-11.6-12c0-6.6,5.2-11.9,11.6-11.9      C316.9,236.6,322.1,242,322.1,248.6z"/></g></g><g><g><path class="st2" d="M228.5,248.6c0,15.5-12.1,28-27,28c-14.9,0-27-12.5-27-28c0-15.4,12.1-28,27-28      C216.4,220.6,228.5,233.1,228.5,248.6z"/></g><g><path class="st1" d="M213,248.6c0,6.6-5.2,12-11.5,12c-6.4,0-11.6-5.4-11.6-12c0-6.6,5.2-11.9,11.6-11.9      C207.8,236.6,213,242,213,248.6z"/></g></g></g><g><g class="st3"><path class="st4" d="M356.6,302.2c0,10.9-8.8,19.7-19.7,19.7c-10.9,0-19.7-8.8-19.7-19.7c0-10.9,8.8-19.7,19.7-19.7     C347.8,282.5,356.6,291.3,356.6,302.2z"/></g><g class="st3"><path class="st4" d="M194.9,302.2c0,10.9-8.8,19.7-19.7,19.7c-10.9,0-19.7-8.8-19.7-19.7c0-10.9,8.8-19.7,19.7-19.7     C186,282.5,194.9,291.3,194.9,302.2z"/></g></g></g></svg>