<?xml version="1.0" ?><svg id="Layer_1" style="enable-background:new 0 0 512 512;" version="1.1" viewBox="0 0 512 512" xml:space="preserve" xmlns="http://www.w3.org/2000/svg" xmlns:xlink="http://www.w3.org/1999/xlink"><style type="text/css">
	.st0{fill:#FFCE07;}
	.st1{fill:#562A15;}
	.st2{fill:#CD352F;}
</style><g><circle class="st0" cx="256" cy="256" r="128"/><g><g><g><path class="st1" d="M340.6,239.5c1.3,0.8,3.1-0.1,3.1-1.7c0,0,0,0,0,0c0-9.3-7.6-16.9-16.9-16.9c-9.3,0-16.9,7.6-16.9,16.9      c0,0,0,0,0,0c0,1.6,1.8,2.5,3.1,1.7c4-2.5,8.8-3.9,13.8-3.9C331.9,235.6,336.6,237,340.6,239.5z"/></g></g><g><g><path class="st1" d="M199,239.5c1.3,0.8,3.1-0.1,3.1-1.7c0,0,0,0,0,0c0-9.3-7.6-16.9-16.9-16.9c-9.3,0-16.9,7.6-16.9,16.9      c0,0,0,0,0,0c0,1.6,1.8,2.5,3.1,1.7c4-2.5,8.8-3.9,13.8-3.9C190.3,235.6,195,237,199,239.5z"/></g></g></g><g><g><path class="st1" d="M190.5,275.4c-4.1,1.4-6.4,5.8-4.8,9.9c9.5,24.1,37.5,44.4,70.3,44.4c32.8,0,60.7-20.3,70.3-44.4     c1.6-4-0.7-8.5-4.8-9.9C281.9,262,230.1,262,190.5,275.4z"/></g></g><g><g><path class="st2" d="M220.8,321.4c10.5,5.2,22.5,8.3,35.2,8.3c12.7,0,24.7-3.1,35.2-8.3c-9.7-7.3-21.9-11.7-35.2-11.7     C242.7,309.7,230.5,314.1,220.8,321.4z"/></g></g></g></svg>