<?xml version="1.0" ?><svg id="Layer_1" style="enable-background:new 0 0 512 512;" version="1.1" viewBox="0 0 512 512" xml:space="preserve" xmlns="http://www.w3.org/2000/svg" xmlns:xlink="http://www.w3.org/1999/xlink"><style type="text/css">
	.st0{fill:#D04627;}
	.st1{fill:#562A15;}
</style><g><circle class="st0" cx="256" cy="256" r="128"/><g><g><g><g><ellipse class="st1" cx="206.9" cy="263.1" rx="13.1" ry="18.7"/></g></g></g><g><g><g><ellipse class="st1" cx="305.1" cy="263.1" rx="13.1" ry="18.7"/></g></g></g></g><g><g><g><path class="st1" d="M227.8,250.9c-1.6,0-3-1-3.5-2.6c-3.9-13.1-17-23.1-32.7-24.9c-2-0.2-3.4-2-3.2-4c0.2-2,2-3.4,4-3.2      c18.5,2.1,34.1,14.2,38.8,30c0.6,1.9-0.5,3.9-2.4,4.5C228.4,250.8,228.1,250.9,227.8,250.9z"/></g></g><g><g><path class="st1" d="M284.2,250.9c-0.3,0-0.7,0-1-0.1c-1.9-0.6-3-2.6-2.4-4.5c4.7-15.9,20.3-27.9,38.8-30c2-0.2,3.8,1.2,4,3.2      c0.2,2-1.2,3.8-3.2,4c-15.7,1.8-28.8,11.8-32.7,24.9C287.2,249.8,285.8,250.9,284.2,250.9z"/></g></g></g><g><g><path class="st1" d="M281.8,323.5c-1.4,0-2.8-0.5-4-1.6c-5.4-5-12.7-7.9-20.6-8.2c-8.8-0.4-17.2,2.6-23,8.2     c-2.3,2.2-6,2.1-8.2-0.2c-2.2-2.3-2.1-6,0.2-8.2c8.1-7.7,19.5-11.8,31.4-11.4c10.7,0.4,20.7,4.4,28.1,11.3     c2.4,2.2,2.5,5.9,0.3,8.2C284.9,322.9,283.3,323.5,281.8,323.5z"/></g></g></g></svg>