<?xml version="1.0" ?><svg id="Layer_1" style="enable-background:new 0 0 512 512;" version="1.1" viewBox="0 0 512 512" xml:space="preserve" xmlns="http://www.w3.org/2000/svg" xmlns:xlink="http://www.w3.org/1999/xlink"><style type="text/css">
	.st0{fill:#FFCE07;}
	.st1{fill:#562A15;}
	.st2{fill:#FFFFFF;}
	.st3{fill:#CD352F;}
</style><g><circle class="st0" cx="256" cy="256" r="128"/><g><g><path class="st1" d="M173.5,216.1c-0.3,0-0.6,0-0.9-0.1c-2.3-0.5-3.7-2.7-3.2-5c1.6-7.1,6.1-12.7,12.7-15.5     c6.6-2.9,14.4-2.7,20,0.6c2,1.2,2.7,3.7,1.5,5.7c-1.2,2-3.7,2.7-5.7,1.5c-3.3-1.9-8.3-2-12.4-0.2c-2.9,1.3-6.6,4-7.9,9.7     C177.2,214.8,175.5,216.1,173.5,216.1z"/></g><g><path class="st1" d="M338.4,216.1c-1.9,0-3.6-1.3-4.1-3.3c-1.3-5.7-5-8.4-7.9-9.7c-4.1-1.8-9.1-1.8-12.4,0.2     c-2,1.2-4.5,0.5-5.7-1.5c-1.2-2-0.5-4.5,1.5-5.7c5.6-3.2,13.4-3.5,20-0.6c6.6,2.9,11.1,8.4,12.7,15.5c0.5,2.3-0.9,4.5-3.2,5     C339.1,216.1,338.7,216.1,338.4,216.1z"/></g></g><g><g><g><path class="st1" d="M211,267.1c-1.6,0-3.2-0.6-4.4-1.8l-30.4-30.4c-2.4-2.4-2.4-6.4,0-8.9c2.4-2.4,6.4-2.4,8.9,0l30.4,30.4      c2.4,2.4,2.4,6.4,0,8.9C214.2,266.5,212.6,267.1,211,267.1z"/></g><g><path class="st1" d="M180.7,267.1c-1.6,0-3.2-0.6-4.4-1.8c-2.4-2.4-2.4-6.4,0-8.9l30.4-30.4c2.4-2.4,6.4-2.4,8.9,0      c2.4,2.4,2.4,6.4,0,8.9l-30.4,30.4C183.9,266.5,182.3,267.1,180.7,267.1z"/></g></g><g><g><path class="st1" d="M331.3,267.1c-1.6,0-3.2-0.6-4.4-1.8l-30.4-30.4c-2.4-2.4-2.4-6.4,0-8.9c2.4-2.4,6.4-2.4,8.9,0l30.4,30.4      c2.4,2.4,2.4,6.4,0,8.9C334.5,266.5,332.9,267.1,331.3,267.1z"/></g><g><path class="st1" d="M301,267.1c-1.6,0-3.2-0.6-4.4-1.8c-2.4-2.4-2.4-6.4,0-8.9l30.4-30.4c2.4-2.4,6.4-2.4,8.9,0      c2.4,2.4,2.4,6.4,0,8.9l-30.4,30.4C304.2,266.5,302.6,267.1,301,267.1z"/></g></g></g><g><g><path class="st2" d="M256,282.5c-9.8,0-18.5,4.2-24.5,10.8h49C274.5,286.6,265.7,282.5,256,282.5z"/></g><g><g><path class="st1" d="M275.9,340.4c7.9-5.9,13.1-15.2,13.1-25.7c0-8.3-3.2-15.8-8.4-21.5h-49c-5.2,5.7-8.4,13.2-8.4,21.5      c0,10.5,5.1,19.8,13.1,25.7c5.7-3.3,12.5-5.2,19.9-5.2C263.3,335.3,270.1,337.2,275.9,340.4z"/></g><g><path class="st3" d="M275.9,340.4c-5.7-3.3-12.5-5.2-19.9-5.2c-7.3,0-14.2,1.9-19.9,5.2c5.5,4.1,12.4,6.6,19.9,6.6      C263.5,347,270.3,344.6,275.9,340.4z"/></g></g></g></g></svg>